<svg xmlns="http://www.w3.org/2000/svg" id="artboard-svg" width="480" height="605" viewBox="0 0 480 605"><defs><style>.cls-1 { clip-path: url(#clip-Login); } .cls-2 { fill: #eee; } .cls-3 { fill: #16110d; } .cls-4, .cls-7 { fill: #da0037; } .cls-5 { fill: #d82b5c; } .cls-6 { fill: #252525; } .cls-7 { font-size: 110.949px; font-family: Kalameh-Medium, Kalameh; } .cls-11, .cls-7, .cls-9 { font-weight: 500; } .cls-10, .cls-8, .cls-9 { fill: #fff; } .cls-8 { font-size: 48.071px; font-family: IRANSansFaNum; } .cls-11, .cls-9 { font-size: 45px; font-family: Vazir-Medium, Vazir; } .cls-11 { fill: #b2b2b2; }</style><clipPath id="clip-Login"><path d="M0 0h1080v2400H0z"/></clipPath></defs><g transform="translate(-301 -530)"><g id="Login" class="cls-1"><g id="Group_3552" data-name="Group 3552" transform="translate(-2338.646)"><g id="Group_3540" data-name="Group 3540"><path id="Path_3536" d="M2848.393 1123.789c3.341 1.928 3.341 5.055 0 6.984a13.379 13.379 0 0 1-12.1 0c-3.341-1.929-3.341-5.056 0-6.984a13.368 13.368 0 0 1 12.1 0z" class="cls-3" data-name="Path 3536"/><path id="Path_3537" d="M2816.759 1105.525c3.341 1.928 3.341 5.056 0 6.984a13.37 13.37 0 0 1-12.1 0c-3.342-1.928-3.342-5.056 0-6.984a13.376 13.376 0 0 1 12.1 0z" class="cls-3" data-name="Path 3537"/><path id="Path_3538" d="M2785.126 1087.259c3.342 1.931 3.342 5.058 0 6.987a13.364 13.364 0 0 1-12.1 0c-3.341-1.929-3.341-5.056 0-6.987a13.377 13.377 0 0 1 12.1 0z" class="cls-3" data-name="Path 3538"/><path id="Path_3539" d="M2753.493 1069c3.341 1.929 3.341 5.057 0 6.985a13.365 13.365 0 0 1-12.1 0c-3.341-1.928-3.34-5.056 0-6.985a13.377 13.377 0 0 1 12.1 0z" class="cls-3" data-name="Path 3539"/><path id="Path_3540" d="M2721.86 1050.734c3.342 1.929 3.342 5.056 0 6.984a13.368 13.368 0 0 1-12.1 0c-3.34-1.928-3.34-5.055 0-6.984a13.374 13.374 0 0 1 12.1 0z" class="cls-3" data-name="Path 3540"/><ellipse id="Ellipse_142" cx="8.555" cy="4.939" class="cls-3" data-name="Ellipse 142" rx="8.555" ry="4.939" transform="translate(2675.622 1031.025)"/><ellipse id="Ellipse_143" cx="8.555" cy="4.939" class="cls-3" data-name="Ellipse 143" rx="8.555" ry="4.939" transform="translate(2643.988 1012.761)"/><path id="Path_3541" d="M2899.617 1124.046a13.37 13.37 0 0 1 12.1-.011c3.347 1.926 3.357 5.053.022 6.985a13.371 13.371 0 0 1-12.1.013c-3.347-1.925-3.356-5.053-.022-6.987z" class="cls-3" data-name="Path 3541"/><path id="Path_3542" d="M2943.39 1105.76c3.342 1.928 3.342 5.057 0 6.986a13.362 13.362 0 0 1-12.1 0c-3.341-1.929-3.341-5.058 0-6.986a13.381 13.381 0 0 1 12.1 0z" class="cls-3" data-name="Path 3542"/><path id="Path_3543" d="M2975.025 1087.5c3.34 1.93 3.34 5.057 0 6.986a13.367 13.367 0 0 1-12.1 0c-3.341-1.929-3.341-5.056 0-6.986a13.385 13.385 0 0 1 12.1 0z" class="cls-3" data-name="Path 3543"/><path id="Path_3544" d="M3006.659 1069.234c3.339 1.928 3.339 5.055 0 6.984a13.367 13.367 0 0 1-12.1 0c-3.343-1.929-3.343-5.056 0-6.984a13.373 13.373 0 0 1 12.1 0z" class="cls-3" data-name="Path 3544"/><path id="Path_3545" d="M3038.291 1050.97c3.341 1.928 3.341 5.056 0 6.986a13.369 13.369 0 0 1-12.1 0c-3.341-1.93-3.341-5.058 0-6.986a13.363 13.363 0 0 1 12.1 0z" class="cls-3" data-name="Path 3545"/><path id="Path_3546" d="M3069.925 1032.706c3.339 1.929 3.339 5.056 0 6.984a13.361 13.361 0 0 1-12.1 0c-3.34-1.928-3.34-5.055 0-6.984a13.379 13.379 0 0 1 12.1 0z" class="cls-3" data-name="Path 3546"/><path id="Path_3547" d="M2867.985 1105.784a13.368 13.368 0 0 1 12.1-.013c3.347 1.925 3.357 5.053.024 6.987a13.371 13.371 0 0 1-12.1.011c-3.351-1.926-3.361-5.053-.024-6.985z" class="cls-3" data-name="Path 3547"/><path id="Path_3548" d="M2911.758 1087.5c3.341 1.93 3.341 5.057 0 6.986a13.366 13.366 0 0 1-12.1 0c-3.341-1.929-3.341-5.056 0-6.986a13.384 13.384 0 0 1 12.1 0z" class="cls-3" data-name="Path 3548"/><path id="Path_3549" d="M2943.391 1069.234c3.341 1.928 3.341 5.055 0 6.984a13.364 13.364 0 0 1-12.1 0c-3.342-1.928-3.342-5.056 0-6.984a13.37 13.37 0 0 1 12.1 0z" class="cls-3" data-name="Path 3549"/><path id="Path_3550" d="M2975.025 1050.97c3.341 1.928 3.341 5.056 0 6.986a13.373 13.373 0 0 1-12.1 0c-3.341-1.93-3.341-5.058 0-6.986a13.367 13.367 0 0 1 12.1 0z" class="cls-3" data-name="Path 3550"/><path id="Path_3551" d="M3006.659 1032.706c3.339 1.929 3.339 5.056 0 6.987a13.379 13.379 0 0 1-12.1 0c-3.34-1.931-3.34-5.058 0-6.987a13.379 13.379 0 0 1 12.1 0z" class="cls-3" data-name="Path 3551"/><path id="Path_3552" d="M3038.291 1014.442c3.341 1.931 3.341 5.056 0 6.985a13.375 13.375 0 0 1-12.1 0c-3.341-1.929-3.341-5.054 0-6.984a13.372 13.372 0 0 1 12.1-.001z" class="cls-3" data-name="Path 3552"/><ellipse id="Ellipse_144" cx="8.556" cy="4.939" class="cls-3" data-name="Ellipse 144" rx="8.556" ry="4.939" transform="translate(3055.319 994.733)"/><path id="Path_3553" d="M2836.351 1087.521a13.374 13.374 0 0 1 12.1-.014c3.348 1.926 3.358 5.053.023 6.985a13.372 13.372 0 0 1-12.1.013c-3.348-1.925-3.358-5.052-.023-6.984z" class="cls-3" data-name="Path 3553"/><path id="Path_3554" d="M2880.124 1069.234c3.342 1.928 3.342 5.056 0 6.984a13.366 13.366 0 0 1-12.1 0c-3.341-1.928-3.341-5.056 0-6.984a13.372 13.372 0 0 1 12.1 0z" class="cls-3" data-name="Path 3554"/><path id="Path_3555" d="M2911.758 1050.97c3.341 1.928 3.341 5.056 0 6.986a13.372 13.372 0 0 1-12.1 0c-3.341-1.93-3.341-5.057 0-6.986a13.378 13.378 0 0 1 12.1 0z" class="cls-3" data-name="Path 3555"/><path id="Path_3556" d="M2943.391 1032.706c3.341 1.929 3.341 5.056 0 6.987a13.376 13.376 0 0 1-12.1 0c-3.342-1.931-3.342-5.058 0-6.987a13.375 13.375 0 0 1 12.1 0z" class="cls-3" data-name="Path 3556"/><path id="Path_3557" d="M2975.025 1014.443c3.341 1.93 3.341 5.055 0 6.984a13.379 13.379 0 0 1-12.1 0c-3.341-1.929-3.341-5.054 0-6.984a13.369 13.369 0 0 1 12.1 0z" class="cls-3" data-name="Path 3557"/><path id="Path_3558" d="M3006.659 996.179c3.339 1.928 3.339 5.057 0 6.984a13.367 13.367 0 0 1-12.1 0c-3.34-1.927-3.34-5.056 0-6.984a13.373 13.373 0 0 1 12.1 0z" class="cls-3" data-name="Path 3558"/><path id="Path_3559" d="M3038.291 977.915c3.341 1.93 3.341 5.058 0 6.986a13.369 13.369 0 0 1-12.1 0c-3.34-1.928-3.34-5.056 0-6.986a13.375 13.375 0 0 1 12.1 0z" class="cls-3" data-name="Path 3559"/><path id="Path_3560" d="M2804.717 1069.258a13.372 13.372 0 0 1 12.1-.014c3.347 1.926 3.357 5.052.023 6.984a13.369 13.369 0 0 1-12.1.015c-3.346-1.927-3.356-5.052-.023-6.985z" class="cls-3" data-name="Path 3560"/><path id="Path_3561" d="M2848.492 1050.97c3.339 1.929 3.339 5.056 0 6.986a13.373 13.373 0 0 1-12.1 0c-3.34-1.93-3.34-5.057 0-6.986a13.379 13.379 0 0 1 12.1 0z" class="cls-3" data-name="Path 3561"/><path id="Path_3562" d="M2880.125 1032.706c3.341 1.929 3.341 5.056 0 6.987a13.38 13.38 0 0 1-12.1 0c-3.341-1.931-3.341-5.058 0-6.987a13.379 13.379 0 0 1 12.1 0z" class="cls-3" data-name="Path 3562"/><path id="Path_3563" d="M2911.758 1014.443c3.342 1.93 3.342 5.057 0 6.984a13.378 13.378 0 0 1-12.1 0c-3.341-1.927-3.341-5.054 0-6.984a13.371 13.371 0 0 1 12.1 0z" class="cls-3" data-name="Path 3563"/><path id="Path_3564" d="M2943.391 996.179c3.341 1.928 3.341 5.057 0 6.984a13.363 13.363 0 0 1-12.1 0c-3.341-1.927-3.341-5.056 0-6.984a13.375 13.375 0 0 1 12.1 0z" class="cls-3" data-name="Path 3564"/><path id="Path_3565" d="M2975.025 977.915c3.341 1.93 3.341 5.058 0 6.986a13.369 13.369 0 0 1-12.1 0c-3.343-1.928-3.343-5.056 0-6.986a13.375 13.375 0 0 1 12.1 0z" class="cls-3" data-name="Path 3565"/><ellipse id="Ellipse_145" cx="8.555" cy="4.94" class="cls-3" data-name="Ellipse 145" rx="8.555" ry="4.94" transform="translate(2992.053 958.206)"/><path id="Path_3566" d="M2773.084 1050.993a13.377 13.377 0 0 1 12.1-.012c3.348 1.924 3.358 5.052.021 6.985a13.369 13.369 0 0 1-12.1.013c-3.345-1.925-3.355-5.054-.021-6.986z" class="cls-3" data-name="Path 3566"/><path id="Path_3567" d="M2816.858 1039.693a13.379 13.379 0 0 1-12.1 0c-3.34-1.931-3.34-5.058 0-6.986s15.442 5.055 12.1 6.986z" class="cls-3" data-name="Path 3567"/><path id="Path_3568" d="M2836.392 1014.443a13.373 13.373 0 0 1 12.1 0c3.339 1.93 3.339 5.057 0 6.984a13.361 13.361 0 0 1-12.1 0c-3.34-1.927-3.34-5.054 0-6.984s-3.34 1.93 0 0z" class="cls-3" data-name="Path 3568"/><path id="Path_3569" d="M2880.125 996.179c3.341 1.93 3.341 5.057 0 6.984a13.367 13.367 0 0 1-12.1 0c-3.341-1.927-3.339-5.054 0-6.984a13.379 13.379 0 0 1 12.1 0z" class="cls-3" data-name="Path 3569"/><path id="Path_3570" d="M2911.758 977.915c3.342 1.93 3.342 5.058 0 6.986a13.371 13.371 0 0 1-12.1 0c-3.341-1.928-3.341-5.056 0-6.986a13.378 13.378 0 0 1 12.1 0z" class="cls-3" data-name="Path 3570"/><path id="Path_3571" d="M2943.391 959.653c3.341 1.928 3.341 5.056 0 6.985a13.376 13.376 0 0 1-12.1 0c-3.341-1.929-3.341-5.057 0-6.985a13.357 13.357 0 0 1 12.1 0z" class="cls-3" data-name="Path 3571"/><path id="Path_3572" d="M2741.451 1032.729a13.371 13.371 0 0 1 12.1-.012c3.348 1.925 3.357 5.054.023 6.986a13.372 13.372 0 0 1-12.1.013c-3.346-1.926-3.356-5.053-.023-6.987z" class="cls-3" data-name="Path 3572"/><path id="Path_3573" d="M2785.224 1014.443c3.341 1.93 3.341 5.057 0 6.984a13.357 13.357 0 0 1-12.1 0c-3.34-1.927-3.34-5.054 0-6.984a13.369 13.369 0 0 1 12.1 0z" class="cls-3" data-name="Path 3573"/><path id="Path_3574" d="M2709.818 1014.466a13.376 13.376 0 0 1 12.1-.013c3.348 1.925 3.356 5.052.021 6.986a13.372 13.372 0 0 1-12.1.013c-3.345-1.926-3.355-5.052-.021-6.986z" class="cls-3" data-name="Path 3574"/><path id="Path_3575" d="M2753.59 996.179c3.343 1.93 3.343 5.057 0 6.986a13.375 13.375 0 0 1-12.1 0c-3.341-1.929-3.341-5.056 0-6.986a13.375 13.375 0 0 1 12.1 0z" class="cls-3" data-name="Path 3575"/><path id="Path_3576" d="M2678.185 996.2a13.368 13.368 0 0 1 12.1-.013c3.347 1.925 3.357 5.052.023 6.984a13.376 13.376 0 0 1-12.1.013c-3.346-1.921-3.356-5.049-.023-6.984z" class="cls-3" data-name="Path 3576"/><path id="Path_3577" d="M2721.958 984.9a13.373 13.373 0 0 1-12.1 0c-3.339-1.928-3.339-5.056 0-6.984s15.442 5.057 12.1 6.984z" class="cls-3" data-name="Path 3577"/><path id="Path_3578" d="M2646.278 977.747a13.374 13.374 0 0 1 12.1-.013c3.347 1.925 3.357 5.052.023 6.986a13.373 13.373 0 0 1-12.1.012c-3.348-1.924-3.358-5.052-.023-6.985z" class="cls-3" data-name="Path 3578"/><path id="Path_3579" d="M2690.05 966.446a13.377 13.377 0 0 1-12.1 0c-3.341-1.929-3.341-5.056 0-6.986s15.442 5.057 12.1 6.986z" class="cls-3" data-name="Path 3579"/></g><g id="Group_3551" data-name="Group 3551"><g id="Group_3541" data-name="Group 3541"><path id="Path_3580" d="M2922.752 858.913v-.009l-21.989-12.333-.019.039a27.06 27.06 0 0 0-8.672-3.115c-21.718-3.7-44.537 18.7-50.3 49.134-4.559 24.074 3.159 45.177 17.45 53.289l-.008.016 20.826 11.474.01-.028a26.99 26.99 0 0 0 12.6 4.838c20.208 2.232 41.447-18.064 48.03-46.108 5.937-25.282-1.79-49.117-17.928-57.197z" class="cls-4" data-name="Path 3580"/><path id="Path_3581" d="M2937.381 868.048a35.158 35.158 0 0 0-10.59-10.43l.041-.091-27.8-15.533-.079.209a29.259 29.259 0 0 0-6.341-1.854c-23.589-4.032-47.819 19.161-53.975 51.689-4.433 23.407 2.144 45.03 16.44 55.033l-.086.179 23.98 13.211a30.078 30.078 0 0 0 13.33 4.929 30.975 30.975 0 0 0 3.414.188c20.8 0 41.477-20.63 48.075-48.739 4.248-18.099 1.849-36.339-6.409-48.791zm-22.835 3.477c.4 1.54.636 3.155.911 4.755a18.171 18.171 0 0 0-2.733-.745c-14.15-2.216-29.194 12.528-33.276 32.976-2.337 11.744-.483 23.231 4.948 30.718a23.076 23.076 0 0 0 2.621 3 37.176 37.176 0 0 1-3.681 1.855l-1.208.488-3.346 7.71a30.95 30.95 0 0 1-3.642-4.1c-7.55-10.2-10.23-25.924-7.175-42.052 5.035-26.622 23.855-46.93 42.435-46.93a25.025 25.025 0 0 1 4.191.355 24.133 24.133 0 0 1 3.92 1.117l-4.247 9.786zm-27.564 65.83c-4.924-6.782-6.567-17.334-4.4-28.222 3.443-17.3 15.574-30.629 27.284-30.629a15.136 15.136 0 0 1 2.359.187 14.625 14.625 0 0 1 3.79 1.208 67.505 67.505 0 0 1-1.5 22.574c-3.848 16.395-13.17 30.491-24.6 38.03a18.877 18.877 0 0 1-2.933-3.148zm33.75-33.426a76.027 76.027 0 0 0 1.984-18.354c.122.17.266.3.384.475 4.829 7.132 6.216 17.969 3.709 28.99-3.99 17.523-16.852 30.627-28.81 29.189a14.18 14.18 0 0 1-1.8-.416c11.468-8.79 20.637-23.285 24.533-39.884zm-59.932 39.214c-13.471-7.65-20.007-28.177-15.892-49.924 5.429-28.634 26.784-49.964 46.635-46.578a24.12 24.12 0 0 1 7.658 2.759l6.705 3.743c-20.253 2.7-38.909 23.762-44.2 51.8-2.92 15.4-1.124 30.074 4.826 41.372l-4.562-2.515zm76.777-27.763c-6.131 26.117-26.129 45.7-44.571 43.67a23.7 23.7 0 0 1-8.921-2.937l2.877-6.632a44.305 44.305 0 0 0 6.078-3.338 17.729 17.729 0 0 0 4.589 1.259 19.357 19.357 0 0 0 2.2.129c12.988 0 25.921-13.436 30.1-31.786 2.7-11.862 1.128-23.635-4.184-31.484a22.557 22.557 0 0 0-3.286-3.8 63.763 63.763 0 0 0-1.467-9.478l3.256-7.5a29.4 29.4 0 0 1 7.816 8.094c7.304 11.013 9.366 27.39 5.51 43.803z" class="cls-3" data-name="Path 3581"/></g><g id="Group_3542" data-name="Group 3542"><path id="Path_3582" d="M3014.4 956.623c5.357-3.187 4.647-8.67-1.654-12.309l-87.46-50.493c-6.351-3.668-15.96-4.067-21.462-.891l-129.017 74.488c-2.667 1.542-3.684 3.659-3.666 5.813l-.016-.32v10.01l.011 1.594c.245 2.269 2 4.608 5.212 6.465l87.459 50.495c6.353 3.666 15.962 4.064 21.462.889l129.019-74.488c4.964-2.865 4.841-7.649.112-11.253z" class="cls-4" data-name="Path 3582"/><path id="Path_3583" d="M3021.186 951.258c-.025-3.673-2.517-7.21-6.842-9.7l-87.458-50.5c-7.347-4.25-18.176-4.639-24.658-.886l-129.007 74.482a9.707 9.707 0 0 0-5.266 8.254h-.024l.039 11.947c.358 3.413 2.772 6.569 6.786 8.887l87.458 50.5a28.051 28.051 0 0 0 13.714 3.454 22.234 22.234 0 0 0 10.939-2.568l129.021-74.488c3.2-1.849 5.073-4.545 5.267-7.591a9.246 9.246 0 0 0-2.049-6.234 8.417 8.417 0 0 0 2.08-5.557zm-246.867 21.951h.016c-.007-.784.2-1.948 2.072-3.026l129.014-74.489c4.527-2.625 12.91-2.216 18.272.889l87.459 50.495c2.681 1.549 3.647 3.2 3.654 4.218 0 1.193-1.27 2.132-2.035 2.583l-4.066 2.415 1.337 1.02-125.567 72.5c-4.98 2.867-14.072 2.453-19.877-.892l-87.457-50.492a11.978 11.978 0 0 1-2.818-2.228zm238.374-8.1L2883.67 1039.6c-4.532 2.613-12.9 2.207-18.259-.89l-87.462-50.5c-2.14-1.235-3.5-2.746-3.614-3.733l-.006-4.151c.409.287.765.6 1.222.86l87.46 50.492a26.382 26.382 0 0 0 12.917 3.266 20.649 20.649 0 0 0 10.136-2.371l126.678-73.14c1.3 1.083 2.106 2.255 2.039 3.2-.071 1.147-1.339 2.046-2.088 2.479z" class="cls-3" data-name="Path 3583"/></g><g id="Group_3548" data-name="Group 3548"><g id="Group_3546" data-name="Group 3546"><g id="Group_3543" data-name="Group 3543"><path id="Path_3584" d="M2912.443 890.821a7.488 7.488 0 0 1-7.491-7.487V645.443a93 93 0 0 1 45.391-79.892l51.117-30.466a7.494 7.494 0 0 1 10.271 2.6 7.491 7.491 0 0 1-2.6 10.267l-51.12 30.468a78.02 78.02 0 0 0-38.076 67.017v237.9a7.489 7.489 0 0 1-7.492 7.484z" class="cls-4" data-name="Path 3584"/><path id="Path_3585" d="M2912.443 894.012a10.693 10.693 0 0 1-10.682-10.678V645.443a96.631 96.631 0 0 1 46.947-82.632l51.115-30.467a10.682 10.682 0 0 1 10.939 18.351l-51.116 30.468a75.155 75.155 0 0 0-36.522 64.273v237.9a10.694 10.694 0 0 1-10.681 10.676zm92.842-356.792a4.224 4.224 0 0 0-2.19.61l-51.114 30.465a90.212 90.212 0 0 0-43.832 77.148v237.891a4.292 4.292 0 1 0 8.585 0v-237.9a81.589 81.589 0 0 1 39.641-69.759l51.114-30.466a4.3 4.3 0 0 0-2.2-7.991z" class="cls-3" data-name="Path 3585"/></g><g id="Group_3544" data-name="Group 3544"><path id="Path_3586" d="M3013.467 944.19a7.488 7.488 0 0 1-7.486-7.49V698.8a92.988 92.988 0 0 1 45.38-79.88l51.119-30.467a7.492 7.492 0 0 1 10.269 2.6 7.49 7.49 0 0 1-2.6 10.268l-51.116 30.465a78.011 78.011 0 0 0-38.074 67.015V936.7a7.491 7.491 0 0 1-7.492 7.49z" class="cls-4" data-name="Path 3586"/><path id="Path_3587" d="M3013.465 947.382a10.691 10.691 0 0 1-10.681-10.682V698.8a96.64 96.64 0 0 1 46.939-82.621l51.115-30.466a10.683 10.683 0 1 1 10.946 18.35l-51.114 30.463a75.164 75.164 0 0 0-36.522 64.274v237.9a10.694 10.694 0 0 1-10.683 10.682zm92.843-356.8a4.294 4.294 0 0 0-2.207.612L3053 621.663a90.206 90.206 0 0 0-43.826 77.136V936.7a4.294 4.294 0 1 0 8.587 0V698.8a81.593 81.593 0 0 1 39.639-69.76l51.117-30.462a4.3 4.3 0 0 0-1.147-7.859 4.325 4.325 0 0 0-1.062-.135z" class="cls-3" data-name="Path 3587"/></g><g id="Group_3545" data-name="Group 3545"><path id="Path_3588" d="M2998.976 815.406a19.8 19.8 0 0 1-9.865-2.835l-62.989-36.37c-10.7-6.174-19.087-21.894-19.087-35.79v-3.654c0-8.686 3.294-15.569 9.046-18.89 5.121-2.959 11.511-2.666 17.533.808l62.987 36.368c10.7 6.176 19.084 21.9 19.084 35.792v3.653c0 8.688-3.3 15.575-9.049 18.892a15.154 15.154 0 0 1-7.66 2.026zM2996.6 799.6c1.621.934 2.488.87 2.546.812.328-.192 1.557-1.753 1.557-5.921v-3.653c0-8.59-5.419-19.254-11.593-22.819l-62.989-36.369c-1.5-.865-2.393-.895-2.55-.807-.328.191-1.557 1.75-1.557 5.917v3.654c0 8.591 5.419 19.25 11.6 22.818z" class="cls-4" data-name="Path 3588"/><path id="Path_3589" d="M2998.976 818.6a23.047 23.047 0 0 1-11.462-3.266l-62.988-36.366c-11.593-6.692-20.684-23.63-20.684-38.557v-3.655c0-9.848 3.879-17.742 10.642-21.65 6.131-3.555 13.7-3.251 20.723.811l62.988 36.368c11.594 6.688 20.685 23.621 20.685 38.553v3.653c0 9.858-3.88 17.752-10.642 21.654a18.307 18.307 0 0 1-9.262 2.455zm-75.229-99.557a12.018 12.018 0 0 0-6.07 1.588c-4.736 2.738-7.448 8.616-7.448 16.125v3.655c0 12.648 7.846 27.468 17.492 33.031l62.986 36.37c4.94 2.859 10.239 3.182 14.336.807 4.737-2.731 7.449-8.61 7.449-16.128v-3.653c0-12.65-7.847-27.463-17.492-33.025l-62.988-36.372a16.621 16.621 0 0 0-8.265-2.401zm75.212 84.6a8.51 8.51 0 0 1-3.95-1.27l-.009-.005-62.988-36.37c-7.144-4.122-13.189-15.839-13.189-25.582v-3.655c0-4.3 1.183-7.547 3.172-8.682 1.781-1.024 4.1-.125 5.726.815l62.986 36.368c7.154 4.132 13.191 15.846 13.191 25.581v3.653c0 4.032-1.043 7.142-2.8 8.45a3.4 3.4 0 0 1-2.139.689zm-73.631-68.761a13.508 13.508 0 0 0-.118 1.879v3.655c0 7.479 4.761 17.039 10 20.056l62.185 35.91a13.589 13.589 0 0 0 .119-1.886v-3.653c0-7.472-4.761-17.031-10-20.059z" class="cls-3" data-name="Path 3589"/></g></g><g id="Group_3547" data-name="Group 3547"><path id="Path_3590" d="M2962.12 771.515l-159.3-91.972-159.3 91.972v183.946l159.3 91.972V863.957z" class="cls-5" data-name="Path 3590"/><path id="Path_3591" d="M2643.519 954.865l159.3 91.974V863.364l-159.3-92.442z" class="cls-4" data-name="Path 3591"/><path id="Path_3592" d="M2965.312 769.678l-162.494-93.824-162.01 93.546-.49.279-.023 3.665.023.013V957.3l159.307 91.973 3.193 1.844 3.2-1.844 157.7-91.046 1.6-.927V773.356zm-162.494-86.453l74.869 43.226-152.926 88.288-74.867-43.223zm-3.193 358.687l-152.919-88.295V777.046l152.919 88.281zm68.032-219.545l-64.84 37.435-74.873-43.224 152.928-88.288 74.865 43.226z" class="cls-3" data-name="Path 3592"/><path id="Path_3593" d="M2739.542 863.706l-29.552-17.061c-3.263-1.879-6.581-2.073-9.316-.5-3.069 1.776-4.838 5.539-4.838 10.339 0 8.04 4.815 17.116 10.96 20.659l29.553 17.063a10.707 10.707 0 0 0 5.321 1.559 7.973 7.973 0 0 0 4.005-1.069c3.069-1.776 4.829-5.54 4.829-10.337-.004-8.033-4.813-17.11-10.962-20.653zm2.936 25.468c-.9.5-2.227-.093-2.936-.5l-29.552-17.064c-4.213-2.43-7.765-9.354-7.765-15.127 0-2.852.88-4.372 1.637-4.809.911-.535 2.236.087 2.934.5l2.045 1.177c.735 6.926 4.84 14.155 10 17.137l25.22 14.556c-.129 2.374-.861 3.712-1.583 4.13z" class="cls-3" data-name="Path 3593"/><path id="Path_3594" d="M2939.1 901.718a4.983 4.983 0 0 0-5.143.288l-23.534 13.577c-3.483 2.011-6.217 7.177-6.217 11.742v25.235c0 2.678.972 4.781 2.68 5.765a4.315 4.315 0 0 0 2.181.584 5.862 5.862 0 0 0 2.952-.873l23.529-13.58h.009c3.482-2.016 6.214-7.182 6.214-11.748v-25.227c.003-2.686-.971-4.781-2.671-5.763z" class="cls-4" data-name="Path 3594"/></g></g><g id="Group_3550" data-name="Group 3550"><path id="Path_3595" d="M3031.385 920.715l-21.991-12.333-.018.041a27.113 27.113 0 0 0-8.672-3.117c-21.719-3.7-44.536 18.7-50.3 49.134-4.558 24.075 3.161 45.176 17.447 53.291v.016l20.822 11.472 4.493-10.364c14.876-6.023 28.137-22.733 33.092-43.844a67.929 67.929 0 0 0 .01-32.485z" class="cls-4" data-name="Path 3595"/><path id="Path_3596" d="M3046.007 929.863a35.12 35.12 0 0 0-10.587-10.432l.038-.091-27.795-15.54-.08.207a29.009 29.009 0 0 0-6.341-1.852c-23.6-4-47.821 19.158-53.967 51.687-4.691 24.764 2.944 47.538 19.033 56.691l21.3 11.736a30.034 30.034 0 0 0 13.326 4.923 30.732 30.732 0 0 0 3.412.188c20.8 0 41.479-20.63 48.077-48.734 4.241-18.092 1.843-36.332-6.416-48.783zm-92.467 25.167c5.039-26.619 23.847-46.928 42.426-46.928a24.892 24.892 0 0 1 4.209.354 23.465 23.465 0 0 1 7.641 2.754l6.693 3.736c-20.242 2.69-38.882 23.776-44.181 51.814-2.921 15.391-1.124 30.054 4.823 41.354l-5.726-3.159c-13.472-7.649-20-28.179-15.885-49.925z" class="cls-3" data-name="Path 3596"/><g id="Group_3549" data-name="Group 3549"><path id="Path_3597" d="M3008.464 1009.344a18.726 18.726 0 0 1-2.206-.131 19 19 0 0 1-13.237-8.181c-5.429-7.487-7.283-18.97-4.946-30.708 4.082-20.444 19.1-35.176 33.283-32.975a19.259 19.259 0 0 1 13.008 8.721c5.315 7.852 6.88 19.624 4.185 31.491-4.177 18.346-17.108 31.783-30.087 31.783zm10.034-69.029c-11.708 0-23.848 13.327-27.29 30.63-2.165 10.885-.524 21.433 4.4 28.215a15.914 15.914 0 0 0 11.027 6.885c11.95 1.44 24.812-11.668 28.8-29.194 2.508-11.02 1.119-21.857-3.71-28.994a16.169 16.169 0 0 0-10.867-7.354 15.153 15.153 0 0 0-2.358-.188z" class="cls-4" data-name="Path 3597"/></g><path id="Path_3598" d="M3022.386 975.426c-2.32 10.208-9.813 17.645-16.87 16.8-7.155-.856-11.368-9.914-9.275-20.428 2.142-10.749 9.982-18.682 17.375-17.509 7.284 1.155 11.145 10.706 8.77 21.137z" class="cls-4" data-name="Path 3598"/><path id="Path_3599" d="M3027.778 978.644c-2.32 10.207-9.816 17.645-16.871 16.8-7.155-.857-11.368-9.915-9.276-20.429 2.141-10.749 9.984-18.68 17.373-17.509 7.283 1.157 11.147 10.707 8.774 21.138z" class="cls-5" data-name="Path 3599"/></g></g></g></g></g></svg>